<svg width="1920" height="353" viewBox="0 0 1920 353" fill="none" xmlns="http://www.w3.org/2000/svg">
<path d="M2109.7 5.35623C1858.2 -8.14377 1713.84 181.278 1693.7 171.356C1661.1 151.53 1575.54 28.7976 1555.2 111.356C1480.89 412.99 1182.22 236.092 973 171.356" stroke="black" stroke-width="1.5"/>
<path d="M-291.797 337.356C-128.064 382.12 -95.1364 246.913 -74.7974 164.355C-54.4584 81.7973 31.0966 204.529 63.7029 224.356C83.841 234.278 261 11 641.5 88.5" stroke="black" stroke-width="1.5"/>
<path d="M752.62 149.825C756.745 147.717 759.182 143.822 761.515 138.052C763.359 142.652 765.732 147.223 770.644 149.773C766.041 152.847 764.03 154.839 761.245 162.044C761.065 158.763 757.532 152.375 752.62 149.825Z" stroke="black" stroke-width="1.5"/>
<path d="M782.911 119.615C794.023 113.117 800.431 101.201 806.448 83.5729C811.738 97.5584 818.466 111.445 831.992 119.129C819.638 128.582 814.277 134.687 807.115 156.698C806.431 146.702 796.437 127.299 782.911 119.615Z" stroke="black" stroke-width="1.5"/>
</svg>
